<?xml version="1.0" standalone="no"?>
<!DOCTYPE svg PUBLIC "-//W3C//DTD SVG 20010904//EN"
 "http://www.w3.org/TR/2001/REC-SVG-20010904/DTD/svg10.dtd">
<svg version="1.0" xmlns="http://www.w3.org/2000/svg"
 width="512.000000pt" height="512.000000pt" viewBox="0 0 512.000000 512.000000"
 preserveAspectRatio="xMidYMid meet">
<metadata>
Created by potrace 1.11, written by Peter Selinger 2001-2013
</metadata>
<g transform="translate(0.000000,512.000000) scale(0.100000,-0.100000)"
fill="#000000" stroke="none">
<path d="M2764 4389 c-21 -6 -349 -326 -1121 -1096 -599 -599 -1095 -1098
-1102 -1110 -13 -26 -14 -78 -2 -101 19 -36 378 -385 410 -399 63 -27 82 -14
274 175 l177 176 0 -277 c0 -195 -3 -277 -11 -277 -6 0 -26 -7 -45 -16 -56
-27 -64 -56 -64 -239 l0 -161 -54 -17 c-70 -23 -165 -86 -216 -145 -42 -49
-110 -173 -110 -201 0 -22 -19 -41 -41 -41 -30 0 -164 -75 -208 -116 -55 -50
-117 -146 -138 -211 l-17 -53 -179 0 c-142 0 -186 -3 -212 -16 -35 -16 -65
-65 -65 -104 0 -39 30 -88 65 -104 30 -14 225 -16 1955 -16 1697 0 1926 2
1954 15 33 16 66 61 66 89 0 14 17 16 120 16 81 0 120 -4 120 -11 0 -29 35
-79 65 -93 45 -22 185 -22 230 0 35 16 65 65 65 104 0 56 -59 119 -112 120 -7
0 -26 30 -42 65 -33 74 -101 147 -163 176 l-43 19 0 687 0 687 108 -108 c116
-117 148 -139 190 -132 15 2 31 5 36 5 16 2 386 374 402 404 17 32 13 88 -7
115 -44 58 -2195 2192 -2210 2192 -9 0 -23 2 -31 4 -7 2 -27 0 -44 -5z"/>
<path d="M4914 271 c-11 -5 -33 -24 -48 -42 -38 -45 -33 -107 13 -153 27 -26
39 -31 81 -31 43 0 54 5 82 33 28 28 33 39 33 82 0 42 -5 54 -31 81 -33 33
-91 46 -130 30z"/>
</g>
</svg>
